<svg xmlns="http://www.w3.org/2000/svg" viewBox="-3 -2 36 36" width="100%" height="100%" shape-rendering="crispEdges">
  <defs>
    <!-- Master Outline: combines the rebuilt coordinate matrices for the top and bottom rows -->
    <!-- "flow" is perfectly center-aligned to "tong" while preserving the original pixel-tight vertical spacing -->
    <path id="master_outline" d="
      M2 2h2v2h-2Z M0 4h5v2h-5Z M2 6h2v6h-2Z M2 12h4v1h-4Z
      M7 16h2v12h-2Z M7 28h4v1h-4Z
      M9 4h4v1h-4Z M8 5h6v1h-6Z M8 6h2v5h-2Z M12 6h2v5h-2Z M8 11h6v1h-6Z M9 12h4v1h-4Z
      M14 20h4v1h-4Z M13 21h6v1h-6Z M13 22h2v5h-2Z M17 22h2v5h-2Z M13 27h6v1h-6Z M14 28h4v1h-4Z
      M17 4h4v1h-4Z M16 5h6v1h-6Z M16 6h2v7h-2Z M20 6h2v7h-2Z
      M21 20h2v7h-2Z M25 20h2v7h-2Z M29 20h2v7h-2Z M21 27h10v1h-10Z M22 28h8v1h-8Z
      M25 4h4v1h-4Z M24 5h6v1h-6Z M24 6h2v5h-2Z M28 6h2v5h-2Z M24 11h6v1h-6Z M25 12h5v1h-5Z M28 13h2v2h-2Z M24 15h6v1h-6Z M25 16h4v1h-4Z
      M2 16h2v1h-2Z M1 17h4v1h-4Z M1 18h2v2h-2Z M-1 20h6v2h-6Z M1 22h2v7h-2Z
    " />
  </defs>

  <!-- Pixel-style dark-purple stroke / glow rendered in 8 directions -->
  <g fill="#1A0033">
    <use href="#master_outline" x="-1" y="-1" />
    <use href="#master_outline" x="0" y="-1" />
    <use href="#master_outline" x="1" y="-1" />
    <use href="#master_outline" x="-1" y="0" />
    <use href="#master_outline" x="1" y="0" />
    <use href="#master_outline" x="-1" y="1" />
    <use href="#master_outline" x="0" y="1" />
    <use href="#master_outline" x="1" y="1" />
  </g>

  <!-- t, l (blue) -->
  <path fill="#0088FF" d="
    M2 2h2v2h-2Z M0 4h5v2h-5Z M2 6h2v6h-2Z M2 12h4v1h-4Z
    M7 16h2v12h-2Z M7 28h4v1h-4Z
  " />

  <!-- o, o (magenta) -->
  <path fill="#FF00FF" d="
    M9 4h4v1h-4Z M8 5h6v1h-6Z M8 6h2v5h-2Z M12 6h2v5h-2Z M8 11h6v1h-6Z M9 12h4v1h-4Z
    M14 20h4v1h-4Z M13 21h6v1h-6Z M13 22h2v5h-2Z M17 22h2v5h-2Z M13 27h6v1h-6Z M14 28h4v1h-4Z
  " />

  <!-- n, w (bright yellow) -->
  <path fill="#FFEA00" d="
    M17 4h4v1h-4Z M16 5h6v1h-6Z M16 6h2v7h-2Z M20 6h2v7h-2Z
    M21 20h2v7h-2Z M25 20h2v7h-2Z M29 20h2v7h-2Z M21 27h10v1h-10Z M22 28h8v1h-8Z
  " />

  <!-- g, f (bright green) -->
  <path fill="#85F224" d="
    M25 4h4v1h-4Z M24 5h6v1h-6Z M24 6h2v5h-2Z M28 6h2v5h-2Z M24 11h6v1h-6Z M25 12h5v1h-5Z M28 13h2v2h-2Z M24 15h6v1h-6Z M25 16h4v1h-4Z
    M2 16h2v1h-2Z M1 17h4v1h-4Z M1 18h2v2h-2Z M-1 20h6v2h-6Z M1 22h2v7h-2Z
  " />
</svg>